<svg xmlns="http://www.w3.org/2000/svg" viewBox="0 0 1200 630">
  <!-- Background gradient -->
  <defs>
    <linearGradient id="bg" x1="0%" y1="0%" x2="100%" y2="100%">
      <stop offset="0%" style="stop-color:#1E40AF"/>
      <stop offset="100%" style="stop-color:#3B82F6"/>
    </linearGradient>
  </defs>
  <rect width="1200" height="630" fill="url(#bg)"/>
  
  <!-- Document with checkmark icon -->
  <g transform="translate(100, 165)">
    <path d="M0 0h100l50 50v200a16 16 0 01-16 16H16a16 16 0 01-16-16V16A16 16 0 0116 0z" fill="white"/>
    <path d="M100 0v50h50" fill="none" stroke="#3B82F6" stroke-width="6"/>
    <path d="M30 130l30 30 60-70" fill="none" stroke="#22C55E" stroke-width="14" stroke-linecap="round" stroke-linejoin="round"/>
    <rect x="25" y="200" width="100" height="12" rx="6" fill="#3B82F6" opacity="0.4"/>
    <rect x="25" y="225" width="60" height="12" rx="6" fill="#3B82F6" opacity="0.25"/>
  </g>
  
  <!-- Text -->
  <text x="320" y="280" font-family="system-ui, -apple-system, sans-serif" font-size="72" font-weight="bold" fill="white">ATS Resume</text>
  <text x="320" y="370" font-family="system-ui, -apple-system, sans-serif" font-size="72" font-weight="bold" fill="white">Analyzer</text>
  <text x="320" y="440" font-family="system-ui, -apple-system, sans-serif" font-size="32" fill="rgba(255,255,255,0.8)">Free ATS Score • AI-Powered • No Signup</text>
  
  <!-- Score badge -->
  <g transform="translate(950, 200)">
    <circle cx="100" cy="100" r="100" fill="white"/>
    <circle cx="100" cy="100" r="80" fill="none" stroke="#22C55E" stroke-width="12" stroke-dasharray="380 502" transform="rotate(-90 100 100)"/>
    <text x="100" y="115" font-family="system-ui, sans-serif" font-size="56" font-weight="bold" fill="#1E40AF" text-anchor="middle">85</text>
    <text x="100" y="145" font-family="system-ui, sans-serif" font-size="18" fill="#64748B" text-anchor="middle">ATS Score</text>
  </g>
</svg>
